<svg xmlns="http://www.w3.org/2000/svg" id="svg4561" width="24" height="24" version="1.1" viewBox="0 0 24 24" xml:space="preserve"><metadata id="metadata11"/><path id="path2997" fill="#fff" d="m14 3-4.5 4.5v1l4.5-4.5z" opacity=".3"/><path id="path2995" fill="#fff" d="m14 6v1h3v-1z" opacity=".3"/><path id="path2993" fill="#fff" d="m9.5 10.5v1l5 5.5v-1z" opacity=".3"/><path id="path2991" fill="#fff" d="m7 14.5v1h2.5v-1z" opacity=".3"/><path id="path2989" fill="#fff" d="m15 16.5-6 6v1l6-6h2.5v-1z" opacity=".3"/><path id="path3756-0" fill="#fff" d="m6.5 18v1h2.5v-1z" opacity=".3"/><g id="layer1" transform="matrix(.090661 0 0 .090661 .39539 17.282)"><path id="path3756" fill="#3c3c3c" d="m161.09 6.8928-66.181 66.181h-27.575v126.85h27.575v49.635l66.181-66.181h27.575v-126.85h-27.575zm-11.03 27.575v33.09h33.09v27.575h-27.575v44.12l-55.15-55.151zm-49.635 82.726 55.15 60.666-49.635 49.635v-38.605l-32.346 0.29801-0.74426-27.873h27.575z" transform="translate(0,-192)"/></g></svg>