<svg xmlns="http://www.w3.org/2000/svg" xmlns:svg="http://www.w3.org/2000/svg" id="svg4355" width="22" height="22" version="1.1"><defs id="defs4357"><clipPath id="clipPath4160" clipPathUnits="userSpaceOnUse"><rect style="opacity:1;fill:#f2f2f2;fill-opacity:1;stroke:none;stroke-opacity:1" id="rect4162" width="1" height="1" x="7" y="1023.362"/></clipPath></defs><metadata id="metadata4360"/><g id="layer1" transform="translate(-544.57141,-742.93359)"><rect style="fill:#4d4d4d;fill-opacity:1;stroke:none" id="rect4035" width="0" height="11" x="507.154" y="747.554"/><rect style="fill:#4d4d4d;fill-opacity:1;stroke:none" id="rect4035-5" width="0" height="11" x="525.195" y="745.503"/><rect style="fill:#4d4d4d;fill-opacity:1;stroke:none" id="rect4035-8" width="0" height="11" x="507.154" y="747.554"/><rect style="fill:#4d4d4d;fill-opacity:1;stroke:none" id="rect4035-59" width="0" height="11" x="507.154" y="747.554"/><rect style="fill:#4d4d4d;fill-opacity:1;stroke:none" id="rect4035-6" width="0" height="11" x="499.846" y="742.719"/><rect style="fill:#4d4d4d;fill-opacity:1;stroke:none" id="rect4035-5-1" width="0" height="11" x="517.887" y="740.668"/><rect style="fill:#4d4d4d;fill-opacity:1;stroke:none" id="rect4035-8-3" width="0" height="11" x="499.846" y="742.719"/><rect style="fill:#4d4d4d;fill-opacity:1;stroke:none" id="rect4035-59-4" width="0" height="11" x="499.846" y="742.719"/><rect style="fill:#4d4d4d;fill-opacity:1;stroke:none" id="rect4035-1" width="0" height="11" x="505.861" y="746.936"/><rect style="fill:#4d4d4d;fill-opacity:1;stroke:none" id="rect4035-5-0" width="0" height="11" x="523.902" y="744.884"/><rect style="fill:#4d4d4d;fill-opacity:1;stroke:none" id="rect4035-8-1" width="0" height="11" x="505.861" y="746.936"/><rect style="fill:#4d4d4d;fill-opacity:1;stroke:none" id="rect4035-59-1" width="0" height="11" x="505.861" y="746.936"/><rect id="rect4035-7" width="0" height="11" x="507.154" y="747.554" style="fill:#4d4d4d;fill-opacity:1;stroke:none"/><rect id="rect4035-5-7" width="0" height="11" x="525.195" y="745.503" style="fill:#4d4d4d;fill-opacity:1;stroke:none"/><rect id="rect4035-8-16" width="0" height="11" x="507.154" y="747.554" style="fill:#4d4d4d;fill-opacity:1;stroke:none"/><rect id="rect4035-59-18" width="0" height="11" x="507.154" y="747.554" style="fill:#4d4d4d;fill-opacity:1;stroke:none"/><rect id="rect4035-6-5" width="0" height="11" x="499.846" y="742.719" style="fill:#4d4d4d;fill-opacity:1;stroke:none"/><rect id="rect4035-5-1-8" width="0" height="11" x="517.887" y="740.668" style="fill:#4d4d4d;fill-opacity:1;stroke:none"/><rect id="rect4035-8-3-8" width="0" height="11" x="499.846" y="742.719" style="fill:#4d4d4d;fill-opacity:1;stroke:none"/><rect id="rect4035-59-4-7" width="0" height="11" x="499.846" y="742.719" style="fill:#4d4d4d;fill-opacity:1;stroke:none"/><rect id="rect4035-1-7" width="0" height="11" x="505.861" y="746.936" style="fill:#4d4d4d;fill-opacity:1;stroke:none"/><rect id="rect4035-5-0-8" width="0" height="11" x="523.902" y="744.884" style="fill:#4d4d4d;fill-opacity:1;stroke:none"/><rect id="rect4035-8-1-0" width="0" height="11" x="505.861" y="746.936" style="fill:#4d4d4d;fill-opacity:1;stroke:none"/><rect id="rect4035-59-1-3" width="0" height="11" x="505.861" y="746.936" style="fill:#4d4d4d;fill-opacity:1;stroke:none"/><rect id="rect4035-0" width="0" height="11" x="504.622" y="750.934" style="fill:#4d4d4d;fill-opacity:1;stroke:none"/><rect id="rect4035-5-5" width="0" height="11" x="522.663" y="748.882" style="fill:#4d4d4d;fill-opacity:1;stroke:none"/><rect id="rect4035-8-6" width="0" height="11" x="504.622" y="750.934" style="fill:#4d4d4d;fill-opacity:1;stroke:none"/><rect id="rect4035-59-11" width="0" height="11" x="504.622" y="750.934" style="fill:#4d4d4d;fill-opacity:1;stroke:none"/><rect id="rect4035-9" width="0" height="11" x="488.634" y="747.3" style="fill:#4d4d4d;fill-opacity:1;stroke:none"/><rect id="rect4035-5-8" width="0" height="11" x="506.675" y="745.248" style="fill:#4d4d4d;fill-opacity:1;stroke:none"/><rect id="rect4035-8-0" width="0" height="11" x="488.634" y="747.3" style="fill:#4d4d4d;fill-opacity:1;stroke:none"/><rect id="rect4035-59-1-8" width="0" height="11" x="488.634" y="747.3" style="fill:#4d4d4d;fill-opacity:1;stroke:none"/><rect style="fill:#4d4d4d;fill-opacity:1;stroke:none" id="rect4035-3" width="0" height="11" x="507.154" y="747.554"/><rect style="fill:#4d4d4d;fill-opacity:1;stroke:none" id="rect4035-5-2" width="0" height="11" x="525.195" y="745.503"/><rect style="fill:#4d4d4d;fill-opacity:1;stroke:none" id="rect4035-8-7" width="0" height="11" x="507.154" y="747.554"/><rect style="fill:#4d4d4d;fill-opacity:1;stroke:none" id="rect4035-59-43" width="0" height="11" x="507.154" y="747.554"/><rect style="fill:#4d4d4d;fill-opacity:1;stroke:none" id="rect4035-6-2" width="0" height="11" x="499.846" y="742.719"/><rect style="fill:#4d4d4d;fill-opacity:1;stroke:none" id="rect4035-5-1-6" width="0" height="11" x="517.887" y="740.668"/><rect style="fill:#4d4d4d;fill-opacity:1;stroke:none" id="rect4035-8-3-4" width="0" height="11" x="499.846" y="742.719"/><rect style="fill:#4d4d4d;fill-opacity:1;stroke:none" id="rect4035-59-4-8" width="0" height="11" x="499.846" y="742.719"/><rect style="fill:#4d4d4d;fill-opacity:1;stroke:none" id="rect4035-1-8" width="0" height="11" x="505.861" y="746.936"/><rect style="fill:#4d4d4d;fill-opacity:1;stroke:none" id="rect4035-5-0-0" width="0" height="11" x="523.902" y="744.884"/><rect style="fill:#4d4d4d;fill-opacity:1;stroke:none" id="rect4035-8-1-3" width="0" height="11" x="505.861" y="746.936"/><rect style="fill:#4d4d4d;fill-opacity:1;stroke:none" id="rect4035-59-1-1" width="0" height="11" x="505.861" y="746.936"/><g id="layer1-5" transform="matrix(0.07252111,0,0,0.06593427,546.28874,758.1385)" style="fill:#f2f2f2;fill-opacity:1"><path id="path3756" d="m 161.09,6.8928 -66.181,66.181 -27.575,0 0,126.85 27.575,0 0,49.635 66.181,-66.181 27.575,0 0,-126.85 -27.575,0 z m -11.03,27.575 0,33.09 33.09,0 0,27.575 -27.575,0 0,44.12 -55.15,-55.151 z m -49.635,82.726 55.15,60.666 -49.635,49.635 0,-38.605 -32.346,0.29801 -0.74426,-27.873 27.575,0 z" transform="translate(0,-192)" style="fill:#f2f2f2;fill-opacity:1"/></g></g></svg>